<svg data-v-423bf9ae="" xmlns="http://www.w3.org/2000/svg" viewBox="0 0 432 90" class="iconLeft"><!----><!----><!----><g data-v-423bf9ae="" id="1d376819-fcb8-4f55-a6ef-71114b4accbe" fill="black" transform="matrix(4.319654617459175,0,0,4.319654617459175,159.00139659868108,1.9978413115733744)"><path d="M5.46 3.01L7.20 3.01L7.20 13.51L5.56 13.51L5.53 13.06L5.53 13.06Q5.12 13.36 4.68 13.50L4.68 13.50L4.68 13.50Q4.24 13.65 3.64 13.65L3.64 13.65L3.64 13.65Q2.62 13.65 1.88 13.16L1.88 13.16L1.88 13.16Q1.15 12.67 0.77 11.84L0.77 11.84L0.77 11.84Q0.39 11.02 0.39 10.02L0.39 10.02L0.39 10.02Q0.39 9.03 0.77 8.20L0.77 8.20L0.77 8.20Q1.15 7.38 1.88 6.89L1.88 6.89L1.88 6.89Q2.62 6.40 3.64 6.40L3.64 6.40L3.64 6.40Q4.66 6.40 5.46 6.96L5.46 6.96L5.46 3.01ZM3.89 12.22L3.89 12.22Q4.72 12.22 5.13 11.63L5.13 11.63L5.13 11.63Q5.54 11.05 5.54 10.02L5.54 10.02L5.54 10.02Q5.54 9.00 5.13 8.41L5.13 8.41L5.13 8.41Q4.72 7.83 3.89 7.83L3.89 7.83L3.89 7.83Q3.08 7.83 2.63 8.43L2.63 8.43L2.63 8.43Q2.17 9.03 2.17 10.02L2.17 10.02L2.17 10.02Q2.17 11.02 2.63 11.62L2.63 11.62L2.63 11.62Q3.08 12.22 3.89 12.22L3.89 12.22ZM8.81 13.51L8.81 6.51L10.43 6.51L10.47 7.25L10.47 7.25Q10.78 6.90 11.26 6.64L11.26 6.64L11.26 6.64Q11.75 6.37 12.28 6.37L12.28 6.37L12.28 6.37Q12.45 6.37 12.59 6.40L12.59 6.40L12.46 8.11L12.46 8.11Q12.19 8.04 11.86 8.04L11.86 8.04L11.86 8.04Q11.42 8.04 11.06 8.24L11.06 8.24L11.06 8.24Q10.70 8.44 10.54 8.74L10.54 8.74L10.54 13.51L8.81 13.51ZM16.80 13.65L16.80 13.65Q15.58 13.65 14.72 13.15L14.72 13.15L14.72 13.15Q13.86 12.66 13.43 11.82L13.43 11.82L13.43 11.82Q13.01 10.99 13.01 9.97L13.01 9.97L13.01 9.97Q13.01 8.99 13.41 8.18L13.41 8.18L13.41 8.18Q13.82 7.36 14.59 6.88L14.59 6.88L14.59 6.88Q15.36 6.40 16.42 6.40L16.42 6.40L16.42 6.40Q17.40 6.40 18.08 6.80L18.08 6.80L18.08 6.80Q18.76 7.21 19.10 7.90L19.10 7.90L19.10 7.90Q19.45 8.58 19.45 9.44L19.45 9.44L19.45 9.44Q19.45 9.86 19.33 10.39L19.33 10.39L14.81 10.39L14.81 10.39Q14.95 11.31 15.54 11.77L15.54 11.77L15.54 11.77Q16.13 12.22 16.95 12.22L16.95 12.22L16.95 12.22Q18.09 12.22 19.05 11.65L19.05 11.65L19.14 13.12L19.14 13.12Q18.69 13.36 18.09 13.50L18.09 13.50L18.09 13.50Q17.50 13.65 16.80 13.65L16.80 13.65ZM14.85 9.21L17.68 9.21L17.68 9.21Q17.68 8.67 17.37 8.25L17.37 8.25L17.37 8.25Q17.07 7.83 16.42 7.83L16.42 7.83L16.42 7.83Q15.78 7.83 15.39 8.20L15.39 8.20L15.39 8.20Q14.99 8.58 14.85 9.21L14.85 9.21ZM22.15 13.65L22.15 13.65Q21.28 13.65 20.70 13.08L20.70 13.08L20.70 13.08Q20.12 12.52 20.12 11.55L20.12 11.55L20.12 11.55Q20.12 10.64 20.78 10.09L20.78 10.09L20.78 10.09Q21.43 9.53 22.33 9.30L22.33 9.30L22.33 9.30Q23.23 9.07 24.05 9.04L24.05 9.04L24.05 9.04Q24.02 8.43 23.74 8.16L23.74 8.16L23.74 8.16Q23.45 7.90 22.79 7.90L22.79 7.90L22.79 7.90Q22.33 7.90 21.89 8.02L21.89 8.02L21.89 8.02Q21.45 8.15 20.87 8.43L20.87 8.43L20.72 7.01L20.72 7.01Q21.99 6.40 23.27 6.40L23.27 6.40L23.27 6.40Q24.50 6.40 25.15 7.07L25.15 7.07L25.15 7.07Q25.80 7.74 25.80 9.21L25.80 9.21L25.80 11.10L25.80 11.10Q25.80 11.63 25.85 11.87L25.85 11.87L25.85 11.87Q25.90 12.10 26.02 12.16L26.02 12.16L26.02 12.16Q26.14 12.22 26.42 12.22L26.42 12.22L26.64 12.22L26.49 13.65L25.86 13.65L25.86 13.65Q25.28 13.65 24.89 13.43L24.89 13.43L24.89 13.43Q24.50 13.22 24.29 12.84L24.29 12.84L24.29 12.84Q23.95 13.22 23.37 13.43L23.37 13.43L23.37 13.43Q22.79 13.65 22.15 13.65L22.15 13.65ZM22.88 12.32L22.88 12.32Q23.14 12.32 23.48 12.19L23.48 12.19L23.48 12.19Q23.81 12.05 24.07 11.82L24.07 11.82L24.07 10.22L24.07 10.22Q23.23 10.26 22.58 10.58L22.58 10.58L22.58 10.58Q21.94 10.91 21.94 11.48L21.94 11.48L21.94 11.48Q21.94 11.91 22.16 12.12L22.16 12.12L22.16 12.12Q22.39 12.32 22.88 12.32L22.88 12.32ZM35.46 6.40L35.46 6.40Q36.86 6.40 37.54 7.24L37.54 7.24L37.54 7.24Q38.22 8.09 38.22 9.62L38.22 9.62L38.22 13.51L36.48 13.51L36.48 9.74L36.48 9.74Q36.48 8.75 36.18 8.29L36.18 8.29L36.18 8.29Q35.87 7.83 35.17 7.83L35.17 7.83L35.17 7.83Q34.48 7.83 34.13 8.29L34.13 8.29L34.13 8.29Q33.78 8.76 33.78 9.62L33.78 9.62L33.78 13.51L32.05 13.51L32.05 9.74L32.05 9.74Q32.05 8.75 31.72 8.29L31.72 8.29L31.72 8.29Q31.40 7.83 30.70 7.83L30.70 7.83L30.70 7.83Q29.88 7.83 29.34 8.43L29.34 8.43L29.34 13.51L27.61 13.51L27.61 6.51L29.09 6.51L29.15 7.07L29.15 7.07Q30.10 6.40 31.21 6.40L31.21 6.40L31.21 6.40Q32.55 6.40 33.21 7.36L33.21 7.36L33.21 7.36Q33.57 6.90 34.16 6.65L34.16 6.65L34.16 6.65Q34.75 6.40 35.46 6.40L35.46 6.40ZM44.48 13.71L44.48 13.71Q42.99 13.71 41.85 13.08L41.85 13.08L41.85 13.08Q40.71 12.45 40.08 11.29L40.08 11.29L40.08 11.29Q39.45 10.14 39.45 8.61L39.45 8.61L39.45 8.61Q39.45 7.10 40.10 5.94L40.10 5.94L40.10 5.94Q40.75 4.79 41.91 4.15L41.91 4.15L41.91 4.15Q43.06 3.51 44.53 3.51L44.53 3.51L44.53 3.51Q45.95 3.51 47.07 4.09L47.07 4.09L46.87 5.80L46.87 5.80Q46.27 5.53 45.72 5.38L45.72 5.38L45.72 5.38Q45.16 5.24 44.52 5.24L44.52 5.24L44.52 5.24Q43.02 5.24 42.22 6.16L42.22 6.16L42.22 6.16Q41.41 7.08 41.41 8.61L41.41 8.61L41.41 8.61Q41.41 10.14 42.20 11.06L42.20 11.06L42.20 11.06Q42.99 11.98 44.48 11.98L44.48 11.98L44.48 11.98Q45.14 11.98 45.69 11.84L45.69 11.84L45.69 11.84Q46.24 11.70 46.87 11.42L46.87 11.42L47.07 13.13L47.07 13.13Q45.85 13.71 44.48 13.71L44.48 13.71ZM48.30 5.45L48.30 3.71L50.04 3.71L50.04 5.45L48.30 5.45ZM48.30 13.51L48.30 6.51L50.04 6.51L50.04 13.51L48.30 13.51ZM53.94 13.65L53.94 13.65Q53.02 13.65 52.54 13.11L52.54 13.11L52.54 13.11Q52.07 12.57 52.07 11.82L52.07 11.82L52.07 7.94L51.07 7.94L51.23 6.51L52.07 6.51L52.07 4.97L53.80 4.79L53.80 6.51L55.34 6.51L55.34 7.94L53.80 7.94L53.80 11.10L53.80 11.10Q53.80 11.66 53.87 11.88L53.87 11.88L53.87 11.88Q53.93 12.10 54.13 12.16L54.13 12.16L54.13 12.16Q54.33 12.22 54.87 12.22L54.87 12.22L55.34 12.22L55.19 13.65L53.94 13.65ZM57.04 16.90L58.59 13.05L55.68 6.51L57.61 6.51L59.40 11.02L61.22 6.51L63.15 6.51L58.77 16.90L57.04 16.90Z"></path></g><!----><g data-v-423bf9ae="" id="cdd7dab2-21a6-464e-b641-8a537f23695a" transform="matrix(1.6201911887902605,0,0,1.6201911887902605,-10.425749605811959,-35.78375059036851)" stroke="none" fill="black"><path d="M91.985 74.912h-6.309V53.195c0-.791-.641-1.432-1.431-1.432h-9.539v-20.57a1.431 1.431 0 0 0-1.966-1.328l-14.06 5.668V34.4c0-6.714-5.462-12.175-12.176-12.175-6.712 0-12.175 5.461-12.175 12.175v6.304h-3.907c-.791 0-1.431.642-1.431 1.432v9.627H15.753a1.43 1.43 0 0 0-1.43 1.432v21.717H8.014a1.43 1.43 0 0 0 0 2.862h83.971a1.43 1.43 0 1 0 0-2.862zm-9.172-20.287v20.287h-8.107V54.625h8.107zm-45.62-20.224c0-5.136 4.177-9.312 9.312-9.312 5.136 0 9.313 4.177 9.313 9.312v40.511H45.53V62.104c0-.789-.641-1.431-1.431-1.431h-1.568V42.137c0-.79-.64-1.432-1.432-1.432h-3.906v-6.304zM17.185 54.625h11.808v6.048h-1.568c-.791 0-1.431.642-1.431 1.431v12.809h-8.808V54.625zm11.669 20.287V63.535h3V43.567h7.815l-.001 19.968h3v11.377H28.854zm29.827 0V38.619l13.164-5.306v41.599H58.681z"></path></g><!----></svg>